# xmcd CD database file
#
# Track frame offsets:
#	150
#	16960
#	37747
#
# Disc length: 725 seconds
#
# Revision: 1
# Processed by: cddbd v1.5.2PL0 Copyright (c) Steve Scherf et al.
# Submitted via: CDex 1.60beta1-cs1
#
DISCID=1402d303
DTITLE=紗希 - 愛という言葉
DYEAR=2007
DGENRE=Pop
TTITLE0=愛という言葉
TTITLE1=靴
TTITLE2=愛という言葉 (Instrumental)
EXTD=YEAR: 2007
EXTT0=
EXTT1=
EXTT2=
PLAYORDER=
